<mxfile host="app.diagrams.net" modified="2023-11-11T18:13:43.488Z" agent="Mozilla/5.0 (Macintosh; Intel Mac OS X 10_15_7) AppleWebKit/537.36 (KHTML, like Gecko) Chrome/119.0.0.0 Safari/537.36" version="22.1.0" etag="goV5kkogtIHBe3gQeXE7" type="github">
  <diagram name="Pagina-1" id="tc0wwTlY4nhGHk7TkEr6">
    <mxGraphModel>
      <root>
        <mxCell id="0" />
        <mxCell id="1" parent="0" />
      </root>
    </mxGraphModel>
  </diagram>
</mxfile>
